<svg xmlns="http://www.w3.org/2000/svg" viewBox="0 0 507.14 88.40" role="img" aria-label="Boletapp">
  <title>Boletapp — color sobre blanco</title>
  <g fill="#1457D9" transform="translate(-6.600 71.700) scale(0.1 -0.1)"><path transform="translate(0 0)" d="M66,0L206,660L488,660Q550,660 597,649.5Q644,639 674.5,617.5Q705,596 716,562.5Q727,529 717,484Q709,445 686.5,415.5Q664,386 624.5,367.5Q585,349 526,343L523,328Q618,322 655.5,281.5Q693,241 678,173Q666,115 627,77Q588,39 524.5,19.5Q461,0 373,0L66,0ZM247,128L394,128Q454,128 486.5,146Q519,164 527,201Q536,242 505.5,263Q475,284 405,284L280,284L247,128ZM301,383L405,383Q474,383 510.5,402.5Q547,422 555,461Q563,499 537,516.5Q511,534 450,534L333,534L301,383Z"></path><path transform="translate(682 0)" d="M300,-14Q219,-14 164.5,17Q110,48 88.5,110Q67,172 87,265Q107,358 155,419.5Q203,481 271,511.5Q339,542 418,542Q499,542 554,511Q609,480 630.5,418.5Q652,357 632,264Q612,169 563,107Q514,45 445.5,15.5Q377,-14 300,-14ZM329,103Q365,103 392,120Q419,137 438,171Q457,205 468,254Q479,307 474,343.5Q469,380 448,399.5Q427,419 388,419Q354,419 326,402Q298,385 279,351Q260,317 250,267Q232,186 253.5,144.5Q275,103 329,103Z"></path><path transform="translate(1288 0)" d="M59,0L212,717L370,717L218,0L59,0Z"></path><path transform="translate(1565 0)" d="M307,-14Q240,-14 192,4Q144,22 115.5,56.5Q87,91 79,141Q71,191 85,254Q98,316 127,369Q156,422 198.5,460.5Q241,499 296,520.5Q351,542 414,542Q478,542 522,521Q566,500 589,460Q612,420 614,362.5Q616,305 595,233L185,229L203,314L517,317L456,276Q473,326 467.5,357.5Q462,389 441,403.5Q420,418 390,418Q355,418 324.5,399Q294,380 272.5,344.5Q251,309 240,258Q222,176 249,139Q276,102 331,102Q358,102 377,109Q396,116 410,127.5Q424,139 433,153.5Q442,168 448,182L584,154Q569,118 546,87.5Q523,57 489,34Q455,11 410,-1.5Q365,-14 307,-14Z"></path><path transform="translate(2146 0)" d="M263,-13Q169,-13 136,36.5Q103,86 126,193L170,402L96,402L125,525L173,525Q209,526 229,538Q249,550 260,580L286,646L377,646L352,528L479,528L451,397L324,397L282,201Q275,167 288.5,151Q302,135 335,135Q354,135 371.5,139Q389,143 402,150L370,2Q336,-8 309.5,-10.5Q283,-13 263,-13Z"></path><path transform="translate(2547 0)" d="M181,-14Q138,-14 107.5,3Q77,20 64.5,53Q52,86 62,135Q72,181 96,210.5Q120,240 157,257.5Q194,275 242.5,286.5Q291,298 349,306Q383,312 404.5,317Q426,322 438,331.5Q450,341 454,359Q459,385 444.5,402.5Q430,420 390,420Q363,420 338,410.5Q313,401 293.5,381.5Q274,362 261,334L127,372Q148,417 178,449Q208,481 246,502Q284,523 328,532.5Q372,542 420,542Q500,542 545,516Q590,490 603.5,436Q617,382 599,299L581,216Q574,181 567.5,144.5Q561,108 555.5,72Q550,36 546,0L404,0Q406,25 409.5,57.5Q413,90 418,125L400,125Q380,86 346.5,54Q313,22 271,4Q229,-14 181,-14ZM278,101Q296,101 316,107.5Q336,114 355.5,126Q375,138 392.5,155.5Q410,173 422,196L435,268L456,264Q436,252 412,245Q388,238 364,234Q340,230 316.5,225.5Q293,221 273.5,214Q254,207 241,194.5Q228,182 224,161Q218,134 233.5,117.5Q249,101 278,101Z"></path><path transform="translate(3135 0)" d="M24,-167L116,268L171,528L304,528L273,376L290,374Q312,431 342.5,468.5Q373,506 413,524Q453,542 501,542Q569,542 611.5,508.5Q654,475 667.5,412Q681,349 662,261Q645,180 608,118Q571,56 516,21Q461,-14 391,-14Q342,-14 312,3.5Q282,21 266,56Q250,91 246,142L227,142Q227,115 226.5,87Q226,59 223.5,32.5Q221,6 216,-19L185,-167L24,-167ZM359,114Q392,114 419,132Q446,150 465.5,183Q485,216 494,259Q503,305 497,338.5Q491,372 471,390.5Q451,409 418,409Q389,409 365,396.5Q341,384 323,363Q305,342 293.5,317.5Q282,293 277,269L273,250Q269,229 270,209.5Q271,190 277,173Q283,156 294,142.5Q305,129 321.5,121.5Q338,114 359,114Z"></path><path transform="translate(3774 0)" d="M24,-167L116,268L171,528L304,528L273,376L290,374Q312,431 342.5,468.5Q373,506 413,524Q453,542 501,542Q569,542 611.5,508.5Q654,475 667.5,412Q681,349 662,261Q645,180 608,118Q571,56 516,21Q461,-14 391,-14Q342,-14 312,3.5Q282,21 266,56Q250,91 246,142L227,142Q227,115 226.5,87Q226,59 223.5,32.5Q221,6 216,-19L185,-167L24,-167ZM359,114Q392,114 419,132Q446,150 465.5,183Q485,216 494,259Q503,305 497,338.5Q491,372 471,390.5Q451,409 418,409Q389,409 365,396.5Q341,384 323,363Q305,342 293.5,317.5Q282,293 277,269L273,250Q269,229 270,209.5Q271,190 277,173Q283,156 294,142.5Q305,129 321.5,121.5Q338,114 359,114Z"></path></g>
  <path fill="#F4B91A" transform="translate(458.100 1.5) scale(3.7895)" d="M4.69072 18.5288C4.69072 18.5288 1.35251 17.7106 0.690723 17.5288C0.0289395 17.347 -0.056656 17 0.0262769 16.5C1.02627 10.471 1.5717 5.49985 1.19072 1.02881C1.1225 0.228134 1.69072 -0.105166 2.19072 0.0288095L4.69072 0.528809C4.69072 3.02881 6.17941 3.40098 6.69072 3.52881C8.69072 4.02881 9.69073 2.02881 9.69073 2.02881C9.69073 2.02881 10.283 2.06802 12.1907 3.02881C12.9318 3.40203 13.0534 3.64301 12.8574 4.36214C12.5779 5.38768 6.5717 17.9998 6.5717 17.9998C6.5717 17.9998 6.25347 18.8504 4.69072 18.5288Z"></path>
</svg>