<?xml version="1.0" encoding="UTF-8"?>
<svg version="1.1" xmlns="http://www.w3.org/2000/svg" width="2010" height="2070">
<path d="M0 0 C1.07393005 0.22239349 1.07393005 0.22239349 2.16955566 0.44927979 C81.20677603 16.83439118 158.24636881 46.40409089 228 87 C229.05268066 87.60682617 230.10536133 88.21365234 231.18994141 88.83886719 C248.61019992 98.89129764 265.41674571 109.63289274 282 121 C283.23266602 121.84256348 283.23266602 121.84256348 284.49023438 122.70214844 C300.15716317 133.45356128 315.21002495 145.07869226 330 157 C330.95390625 157.76828125 331.9078125 158.5365625 332.890625 159.328125 C343.1386196 167.67582921 353.19260486 176.23171276 362.88916016 185.21533203 C365.48468846 187.61969321 368.11052291 189.96639355 370.8125 192.25 C376.92369085 197.53605116 382.50530431 203.42389543 388.18237305 209.16650391 C392.04686953 213.06474011 395.93925894 216.9347577 399.8359375 220.80078125 C401.68236349 222.63794865 403.52871546 224.47519045 405.375 226.3125 C406.75558594 227.68051758 406.75558594 227.68051758 408.1640625 229.07617188 C413.32681976 234.22049071 418.26510523 239.46168004 423 245 C424.45445517 246.60768373 425.91220895 248.21239715 427.375 249.8125 C431.20036325 254.05576008 434.8509409 258.40859497 438.44140625 262.8515625 C440.32262409 265.17811454 442.23129752 267.47966809 444.15234375 269.7734375 C453.16694686 280.56258909 461.67257555 291.6739802 470 303 C470.84111328 304.13888672 470.84111328 304.13888672 471.69921875 305.30078125 C480.52713917 317.27404149 488.87565661 329.53981781 497 342 C497.50885742 342.77923828 498.01771484 343.55847656 498.54199219 344.36132812 C544.4507769 414.9948835 578.08886026 493.49568192 617.75 680.5 C617.85123169 681.36670319 617.95246338 682.23340637 618.0567627 683.12637329 C621.21842829 710.51627506 622.3818251 737.76340964 622.31805801 765.30935287 C622.31240866 767.79010839 622.30959365 770.27085704 622.30697632 772.75161743 C622.27008775 796.81966466 621.89527968 820.75578376 619.25323486 844.70245361 C618.98852012 847.10415455 618.73395269 849.50680892 618.47998047 851.90966797 C609.68512344 934.00229988 588.19943399 1014.81709324 554 1090 C553.71598328 1090.62670593 553.43196655 1091.25341187 553.13934326 1091.89910889 C541.95436312 1116.57353585 529.75898936 1140.48465505 515.90209961 1163.78198242 C514.49735551 1166.15856207 513.10597851 1168.54068603 511.72485352 1170.9309082 C505.88531719 1181.00735328 499.68649413 1190.77499758 493.1875 1200.4375 C492.70822052 1201.15301025 492.22894104 1201.86852051 491.73513794 1202.60571289 C484.38697608 1213.57400252 476.93213218 1224.44301511 469 1235 C468.47680176 1235.69899414 467.95360352 1236.39798828 467.41455078 1237.11816406 C454.04913441 1254.9253685 440.00592912 1272.27873616 425.02734375 1288.7578125 C423.26032801 1290.71208424 421.53086471 1292.69059737 419.8125 1294.6875 C409.5404986 1306.4040016 398.62766604 1317.47580372 387.625 1328.5 C387.0136319 1329.1139563 386.40226379 1329.7279126 385.77236938 1330.36047363 C373.90749254 1342.26489941 373.90749254 1342.26489941 367.6640625 1347.58105469 C365.0986439 1349.76858593 362.65445063 1352.07711312 360.1875 1354.375 C355.56700451 1358.64395194 350.80893248 1362.68031294 345.90625 1366.625 C343.19827667 1368.83796745 340.54776383 1371.10176598 337.90625 1373.39282227 C331.35181236 1379.07674865 324.65759899 1384.49340132 317.72021484 1389.70507812 C315.91832656 1391.06148111 314.12493299 1392.42862023 312.33203125 1393.796875 C296.98855421 1405.45986593 281.16342158 1416.50311195 265 1427 C264.30680664 1427.45020508 263.61361328 1427.90041016 262.89941406 1428.36425781 C194.19609548 1472.77637204 118.98321457 1505.85955455 40 1527 C38.38061523 1527.43771729 38.38061523 1527.43771729 36.72851562 1527.88427734 C-8.24073418 1539.93104865 -54.5859437 1547.52561613 -101 1551 C-101.67518677 1551.05113953 -102.35037354 1551.10227905 -103.04602051 1551.15496826 C-187.04239856 1557.4496814 -271.98760963 1550.2560315 -476 1488 C-477.02544922 1487.55221191 -478.05089844 1487.10442383 -479.10742188 1486.64306641 C-505.92147325 1474.84326307 -532.37633911 1461.76719403 -557.42236328 1446.55566406 C-559.84911242 1445.09106418 -562.29218467 1443.66068541 -564.74609375 1442.2421875 C-602.65145086 1420.18938376 -637.96678209 1393.83750501 -671.30859375 1365.43701172 C-672.99292607 1364.00600998 -674.6834628 1362.58262965 -676.375 1361.16015625 C-691.36527386 1348.50240152 -705.35524037 1334.81266344 -719.20336914 1320.92700195 C-721.58820255 1318.53673893 -723.97843105 1316.15196242 -726.36914062 1313.76757812 C-727.91438372 1312.22167518 -729.45931709 1310.67546257 -731.00390625 1309.12890625 C-731.70504044 1308.4297963 -732.40617462 1307.73068634 -733.1285553 1307.01039124 C-737.07591414 1303.04442161 -740.8501635 1298.97928326 -744.50038147 1294.73773193 C-746.57152063 1292.33773181 -748.72401969 1290.01591808 -750.875 1287.6875 C-754.96757435 1283.19986568 -758.85270834 1278.59069772 -762.6640625 1273.86328125 C-764.71753384 1271.3462336 -766.81512778 1268.8749594 -768.93554688 1266.41430664 C-775.13555868 1259.2018461 -780.84565367 1251.68045406 -786.49267578 1244.03076172 C-787.96028185 1242.05351079 -789.44337012 1240.0891503 -790.93359375 1238.12890625 C-845.5329015 1166.24512156 -887.0249472 1083.6017246 -940.26123047 663.49462891 C-927.99849608 575.32686709 -901.42256796 491.55656728 -830.87548828 357.03564453 C-829.29343051 354.47494337 -827.72043062 351.90910708 -826.15234375 349.33984375 C-803.92609994 313.10465069 -777.61273078 278.69113703 -749.02734375 247.2421875 C-747.26032801 245.28791576 -745.53086471 243.30940263 -743.8125 241.3125 C-733.69800462 229.77247171 -722.96022068 218.85726125 -712.125 208 C-711.53755005 207.40996185 -710.9501001 206.81992371 -710.34484863 206.21200562 C-704.61132887 200.45859029 -698.89800371 194.74102043 -692.71289062 189.46777344 C-689.95743855 187.10663064 -687.33363131 184.607001 -684.6875 182.125 C-679.86763923 177.64132731 -674.92496022 173.3837577 -669.7890625 169.26171875 C-667.31294332 167.25377336 -664.88561044 165.19905535 -662.46948242 163.11962891 C-654.92234206 156.63678441 -647.07470933 150.58969611 -639.12890625 144.60546875 C-637.1017792 143.07675459 -635.08139563 141.53956025 -633.0625 140 C-601.27012537 115.83988082 -567.39619955 94.18041851 -532.046875 75.60351562 C-528.88874158 73.94144669 -525.74136628 72.26001394 -522.59375 70.578125 C-466.01984721 40.56350266 -405.17027679 19.01643861 -343 4 C-342.33438049 3.83886719 -341.66876099 3.67773438 -340.98297119 3.51171875 C-256.82697211 -16.77226323 -168.05525581 -22.03320288 0 0 Z " fill="#001360" transform="translate(1189,251)"/>
<path d="M0 0 C0.77344757 0.1299939 1.54689514 0.25998779 2.34378052 0.3939209 C83.41649071 14.10134428 160.38071068 40.49382987 274.625 100.4375 C275.42212402 100.91010254 276.21924805 101.38270508 277.04052734 101.86962891 C307.76167987 120.11052133 336.82518817 141.02974671 364.625 163.4375 C365.57890625 164.20578125 366.5328125 164.9740625 367.515625 165.765625 C377.7636196 174.11332921 387.81760486 182.66921276 397.51416016 191.65283203 C400.10968846 194.05719321 402.73552291 196.40389355 405.4375 198.6875 C411.54869085 203.97355116 417.13030431 209.86139543 422.80737305 215.60400391 C426.67186953 219.50224011 430.56425894 223.3722577 434.4609375 227.23828125 C436.30736349 229.07544865 438.15371546 230.91269045 440 232.75 C441.38058594 234.11801758 441.38058594 234.11801758 442.7890625 235.51367188 C447.95181976 240.65799071 452.89010523 245.89918004 457.625 251.4375 C459.07945517 253.04518373 460.53720895 254.64989715 462 256.25 C465.82536325 260.49326008 469.4759409 264.84609497 473.06640625 269.2890625 C474.94762409 271.61561454 476.85629752 273.91716809 478.77734375 276.2109375 C487.79194686 287.00008909 496.29757555 298.1114802 504.625 309.4375 C505.46611328 310.57638672 505.46611328 310.57638672 506.32421875 311.73828125 C515.15213917 323.71154149 523.50065661 335.97731781 531.625 348.4375 C532.13385742 349.21673828 532.64271484 349.99597656 533.16699219 350.79882812 C579.0757769 421.4323835 612.71386026 499.93318192 652.4375 687.625 C652.59575256 688.9955101 652.59575256 688.9955101 652.75720215 690.39370728 C653.82498896 699.74487667 654.75514763 709.09235395 655.32421875 718.48828125 C655.39585991 719.6056794 655.39585991 719.6056794 655.46894836 720.74565125 C655.65357622 724.20411803 655.60946604 727.12215314 654.625 730.4375 C654.39109692 732.42383371 654.19062004 734.41420919 654.01171875 736.40625 C653.90045654 737.6022583 653.78919434 738.7982666 653.67456055 740.03051758 C653.55508057 741.31982178 653.43560059 742.60912598 653.3125 743.9375 C651.87855515 758.84417142 649.98935761 773.64693211 647.625 788.4375 C647.42567871 789.69304688 647.22635742 790.94859375 647.02099609 792.2421875 C641.66194295 825.31237227 633.11439537 857.63609371 622.625 889.4375 C622.10220459 891.04044922 622.10220459 891.04044922 621.56884766 892.67578125 C605.59978291 941.36322294 583.40344446 987.80405471 556.625 1031.4375 C556.06651367 1032.34773926 555.50802734 1033.25797852 554.93261719 1034.19580078 C537.5955421 1062.31155282 518.07231697 1089.34025877 496.37109375 1114.25390625 C493.79735361 1117.21464804 491.33042023 1120.25266864 488.875 1123.3125 C485.70333928 1127.22268822 482.39379947 1130.82799472 478.7421875 1134.29296875 C476.98953778 1136.06825416 475.39776316 1137.86707864 473.78515625 1139.765625 C468.53637761 1145.80939817 462.81269211 1151.39866659 457.14624023 1157.04663086 C455.19204376 1158.9954687 453.24324853 1160.94959272 451.29492188 1162.90429688 C445.23938445 1168.96307269 439.16590483 1174.89874204 432.625 1180.4375 C430.84929779 1182.05717817 429.07791693 1183.68161718 427.3125 1185.3125 C422.90146827 1189.33130593 418.38764642 1193.16615324 413.7421875 1196.91015625 C411.41262058 1198.78797916 409.11242603 1200.69774117 406.8203125 1202.62109375 C396.40039072 1211.34308236 385.68036838 1219.5381264 374.625 1227.4375 C373.26665039 1228.40888916 373.26665039 1228.40888916 371.88085938 1229.39990234 C358.44981906 1238.96408043 344.7752906 1247.97589663 330.625 1256.4375 C329.2320874 1257.27595459 329.2320874 1257.27595459 327.81103516 1258.13134766 C312.0861119 1267.5705595 296.01489459 1276.21196576 279.625 1284.4375 C278.53348633 1284.98792969 277.44197266 1285.53835938 276.31738281 1286.10546875 C247.33854789 1300.6423642 217.27996385 1312.00293334 186.625 1322.4375 C185.98174774 1322.65769806 185.33849548 1322.87789612 184.67575073 1323.10476685 C176.29102509 1325.97078552 167.87965531 1328.60558193 159.3125 1330.875 C158.20567871 1331.16938965 157.09885742 1331.4637793 155.95849609 1331.76708984 C135.88475673 1337.04726355 115.72862675 1341.37965616 95.25976562 1344.81982422 C91.59100844 1345.44327637 87.92855875 1346.09718765 84.265625 1346.75390625 C64.12993941 1350.27898995 44.01161776 1352.14054995 23.625 1353.4375 C22.53655289 1353.5100853 22.53655289 1353.5100853 21.42611694 1353.58413696 C7.10027724 1354.52605752 -7.20927049 1354.63737337 -21.5625 1354.625 C-23.34722214 1354.62459213 -23.34722214 1354.62459213 -25.16799927 1354.62417603 C-43.99641136 1354.60443792 -62.61478749 1354.08317723 -81.375 1352.4375 C-83.27451416 1352.28474609 -83.27451416 1352.28474609 -85.21240234 1352.12890625 C-104.46677488 1350.57648204 -123.38033198 1347.9246685 -142.375 1344.4375 C-143.65407227 1344.20659668 -144.93314453 1343.97569336 -146.25097656 1343.73779297 C-173.83188215 1338.73027891 -200.70263676 1332.05465823 -227.375 1323.4375 C-228.768396 1322.98890625 -228.768396 1322.98890625 -230.18994141 1322.53125 C-236.273707 1320.5630052 -242.33097346 1318.52438886 -248.375 1316.4375 C-249.22916504 1316.14439941 -250.08333008 1315.85129883 -250.96337891 1315.54931641 C-312.29589488 1294.35797721 -386.93445692 1261.87804308 -433.375 1215.4375 C-428.095 1210.4875 -422.815 1205.5375 -417.375 1200.4375 C-413.38473743 1202.03360503 -410.02645636 1203.71426959 -406.3125 1205.8125 C-367.16580569 1227.02005921 -322.3547479 1239.77828165 -278.375 1245.4375 C-276.4412854 1245.70348999 -276.4412854 1245.70348999 -274.46850586 1245.97485352 C-260.77550717 1247.72507625 -247.09576697 1247.77599169 -233.30786133 1247.75317383 C-229.34362978 1247.75002473 -225.38015501 1247.77351936 -221.41601562 1247.79882812 C-200.18499035 1247.85198658 -179.34941569 1246.14232233 -158.5 1242.0625 C-157.38399414 1241.84899902 -156.26798828 1241.63549805 -155.11816406 1241.41552734 C-140.93555439 1238.64526409 -127.08522268 1235.03267774 -113.25 1230.875 C-111.84572754 1230.45371826 -111.84572754 1230.45371826 -110.41308594 1230.02392578 C-105.10696862 1228.39265963 -99.95315898 1226.54711746 -94.81787109 1224.43969727 C-92.41810135 1223.45518249 -90.00594059 1222.51165368 -87.5859375 1221.578125 C-77.65858314 1217.71404478 -68.05155713 1213.5432724 -58.61572266 1208.60058594 C-56.10289341 1207.29625836 -53.57372294 1206.02699625 -51.04296875 1204.7578125 C-25.85276399 1192.01966951 -2.40621545 1176.52680353 18.85595703 1157.93554688 C20.21168475 1156.78750033 21.59262427 1155.66916907 22.98388672 1154.56445312 C30.13310279 1148.87201447 36.63651805 1142.73549654 43.06884766 1136.25439453 C44.74814428 1134.56436758 46.43788969 1132.88532236 48.12890625 1131.20703125 C54.75203654 1124.59195108 60.81052156 1117.78210435 66.625 1110.4375 C67.48811168 1109.40971764 68.35651639 1108.3863093 69.234375 1107.37109375 C103.28028908 1067.67156985 126.06001681 1020.01254925 141.625 970.4375 C141.9960083 969.25776611 141.9960083 969.25776611 142.37451172 968.05419922 C149.65881516 944.47510136 152.85133088 919.88721317 155.625 895.4375 C155.73102539 894.57133057 155.83705078 893.70516113 155.94628906 892.81274414 C157.0006586 883.16753034 156.86894694 873.44064426 156.875 863.75 C156.87567474 862.77796631 156.87634949 861.80593262 156.87704468 860.80444336 C156.84717093 833.55735282 154.06583906 807.17072408 148.625 780.4375 C148.39176025 779.25607422 148.39176025 779.25607422 148.15380859 778.05078125 C132.63067659 700.56045216 85.89277189 618.54888097 23 569.3203125 C20.76873238 567.55144573 18.70525561 565.69211364 16.625 563.75 C-17.52447802 533.1792417 -61.26674266 511.14822522 -104.375 496.4375 C-105.42107422 496.07430664 -106.46714844 495.71111328 -107.54492188 495.33691406 C-129.28942768 487.83295438 -151.34271483 483.0142674 -174.0625 479.625 C-174.76180634 479.51958893 -175.46111267 479.41417786 -176.18161011 479.30557251 C-193.52629045 476.72277924 -210.73800549 476.22697473 -228.25 476.25 C-229.74282501 476.25190338 -229.74282501 476.25190338 -231.26580811 476.25384521 C-311.63698325 476.4488231 -391.74442071 500.84189361 -456.375 549.4375 C-456.96410156 549.87787598 -457.55320312 550.31825195 -458.16015625 550.77197266 C-461.94041556 553.60822426 -465.66935371 556.50406571 -469.375 559.4375 C-470.30699219 560.17484375 -471.23898437 560.9121875 -472.19921875 561.671875 C-478.16911345 566.47504277 -483.84976613 571.53129306 -489.4609375 576.7421875 C-492.13432527 579.214892 -494.84036833 581.64376381 -497.5625 584.0625 C-505.00566375 590.75419049 -511.87766651 597.83179785 -518.375 605.4375 C-519.26738203 606.45517055 -520.16068697 607.47203222 -521.0546875 608.48828125 C-552.3328742 644.22072206 -578.79137393 687.34172435 -593.13671875 732.77734375 C-594.10364833 735.63542897 -595.15525709 738.36599898 -596.30859375 741.1484375 C-607.42397708 768.64793214 -611.68361463 800.07888188 -614.375 829.4375 C-614.44557617 830.15228516 -614.51615234 830.86707031 -614.58886719 831.60351562 C-619.46518228 882.12110792 -612.20459151 935.07468226 -596.109375 983.00390625 C-595.52748957 984.81389955 -594.94915236 986.62503884 -594.375 988.4375 C-594.09333984 989.26523926 -593.81167969 990.09297852 -593.52148438 990.94580078 C-592.85603212 993.19849727 -592.38084233 995.08859022 -592.375 997.4375 C-594.375 1000.546875 -594.375 1000.546875 -597.375 1003.1875 C-597.88667725 1003.65067627 -598.39835449 1004.11385254 -598.92553711 1004.59106445 C-600.38456311 1005.90060104 -601.87897461 1007.17039662 -603.375 1008.4375 C-604.03628906 1009.03433594 -604.69757813 1009.63117187 -605.37890625 1010.24609375 C-608.9861898 1013.4375 -608.9861898 1013.4375 -611.375 1013.4375 C-632.25397473 975.69207008 -650.25281938 937.23676985 -664.375 896.4375 C-664.76494141 895.31166504 -665.15488281 894.18583008 -665.55664062 893.02587891 C-684.13268445 838.74553961 -695.38029984 781.64966892 -699.375 724.4375 C-699.42199036 723.77021881 -699.46898071 723.10293762 -699.51739502 722.41543579 C-700.55112431 707.20657798 -700.61472885 691.98868994 -700.625 676.75 C-700.62667175 675.43434052 -700.62834351 674.11868103 -700.63006592 672.76315308 C-700.64114445 651.48534795 -699.81247901 630.41033057 -697.73779297 609.23291016 C-697.43112257 606.02463418 -697.1681805 602.82012363 -696.94140625 599.60546875 C-695.06830567 574.26481423 -689.83448318 548.96574017 -684.03027344 524.27197266 C-683.43104764 521.67994156 -682.8656329 519.08429395 -682.3203125 516.48046875 C-680.33096668 507.00729707 -677.80807733 497.79142109 -674.9375 488.546875 C-673.73020657 484.65792204 -672.6141758 480.74914049 -671.515625 476.828125 C-651.87524222 407.864021 -618.18191652 338.44179439 -574.80273438 281.33642578 C-573.19454376 279.19748826 -571.61925912 277.03648363 -570.046875 274.87109375 C-562.47162749 264.452367 -554.62701558 254.3283443 -546.375 244.4375 C-545.88370605 243.84710938 -545.39241211 243.25671875 -544.88623047 242.6484375 C-539.59518058 236.30273464 -534.20897005 230.05466795 -528.640625 223.94921875 C-526.75661595 221.86056734 -524.90394136 219.75150734 -523.05859375 217.62890625 C-519.51481999 213.57150779 -515.87626729 209.61312037 -512.1875 205.6875 C-511.21574829 204.65314819 -511.21574829 204.65314819 -510.22436523 203.59790039 C-502.67083738 195.59028977 -495.08300298 187.60492753 -486.6875 180.46875 C-484.07837358 178.17694977 -481.55750983 175.80380732 -479.03198242 173.4206543 C-473.21106542 167.92877389 -467.34168348 162.61598462 -461.08203125 157.62109375 C-458.67791497 155.68184267 -456.33509803 153.68660663 -454.00170898 151.66333008 C-444.84314559 143.75411652 -435.12125319 136.60011552 -425.375 129.4375 C-424.57803711 128.8511377 -423.78107422 128.26477539 -422.95996094 127.66064453 C-412.94288726 120.30964069 -402.80403604 113.19178885 -392.375 106.4375 C-391.68954102 105.99116211 -391.00408203 105.54482422 -390.29785156 105.08496094 C-312.24666656 54.42386251 -223.45635586 19.8994691 -43.6875 -3.1875 C-41.72200195 -3.26484375 -41.72200195 -3.26484375 -39.71679688 -3.34375 C-26.17490756 -3.80302605 -13.31312984 -2.24854677 0 0 Z " fill="#5F8FE5" transform="translate(1154.375,244.5625)"/>
<path d="M0 0 C2.29225435 0.11371497 4.58382388 0.24130964 6.875 0.375 C8.15117188 0.44460937 9.42734375 0.51421875 10.7421875 0.5859375 C14 1 14 1 16 3 C11.38 3 6.76 3 2 3 C2 2.34 2 1.68 2 1 C1.34 0.67 0.68 0.34 0 0 Z " fill="#26498D" transform="translate(1110,239)"/>
</svg>
