<svg width="806" height="767" viewBox="0 0 806 767" fill="none" xmlns="http://www.w3.org/2000/svg">
<path d="M3.53425e-10 103C3.53425e-10 46.1147 46.1147 0 103 0H664C720.885 0 767 46.1147 767 103V234.832V407.83V664C767 720.885 720.885 767 664 767H103C46.1147 767 3.53425e-10 720.885 3.53425e-10 664V103Z" fill="black"/>
<path d="M3.53425e-10 589.5C5 593.833 8.16667 597 15.5 600C22.8333 603.333 30.1667 605 37.5 605C45.1667 605 52.5 602 59.5 596C66.5 590 70 579.667 70 565V207H161V584C161 600.667 158 614.833 152 626.5C146 638.5 137.667 648 127 655C116.333 662.333 104 667.667 90 671C76 674.667 61.3333 676.5 46 676.5C33 676.5 3.53425e-10 664 3.53425e-10 664V589.5Z" fill="white"/>
<path d="M273.539 434C280.539 446.667 288.372 457.667 297.039 467C306.039 476.333 315.706 483.5 326.039 488.5C336.706 493.5 347.872 496 359.539 496C371.872 496 382.039 493 390.039 487C398.039 480.667 402.039 472.167 402.039 461.5C402.039 452.5 399.706 445.333 395.039 440C390.372 434.333 382.872 429 372.539 424C362.206 419 348.539 413.333 331.539 407C323.206 404 313.539 399.833 302.539 394.5C291.872 389.167 281.706 382.333 272.039 374C262.372 365.333 254.372 355 248.039 343C241.706 330.667 238.539 315.833 238.539 298.5C238.539 277.833 243.872 260 254.539 245C265.539 230 280.206 218.667 298.539 211C317.206 203 337.872 199 360.539 199C383.872 199 404.039 202.833 421.039 210.5C438.372 218.167 452.706 227.833 464.039 239.5C475.372 251.167 484.039 263 490.039 275L425.539 311C420.539 302.667 414.706 295.5 408.039 289.5C401.706 283.167 394.539 278.333 386.539 275C378.872 271.333 370.539 269.5 361.539 269.5C349.539 269.5 340.372 272.167 334.039 277.5C327.706 282.5 324.539 288.833 324.539 296.5C324.539 304.5 327.539 311.5 333.539 317.5C339.872 323.5 348.706 329 360.039 334C371.706 339 385.706 344.333 402.039 350C414.372 354.667 425.872 360.167 436.539 366.5C447.206 372.5 456.539 379.833 464.539 388.5C472.872 397.167 479.372 407.167 484.039 418.5C488.706 429.833 491.039 442.833 491.039 457.5C491.039 475.167 487.372 491 480.039 505C473.039 518.667 463.372 530.167 451.039 539.5C439.039 548.833 425.206 555.833 409.539 560.5C394.206 565.5 378.372 568 362.039 568C339.372 568 318.206 564 298.539 556C279.206 547.667 262.372 536.5 248.039 522.5C233.706 508.5 222.539 493.167 214.539 476.5L273.539 434Z" fill="white"/>
<path fill-rule="evenodd" clip-rule="evenodd" d="M600.539 207H547.539V557H632.039V435.5H669.039C698.705 435.5 723.539 431 743.539 422C752.284 417.986 760.104 413.263 767 407.83V234.832C760.104 229.482 752.284 224.871 743.539 221C723.539 211.667 698.705 207 669.039 207H632.039H600.539ZM632.039 276.5V366H669.039C686.039 366 699.372 362.167 709.039 354.5C718.705 346.833 723.539 335.833 723.539 321.5C723.539 306.833 718.705 295.667 709.039 288C699.372 280.333 686.039 276.5 669.039 276.5H632.039Z" fill="white"/>
</svg>
